{"accessors" : [{"bufferView" : 0, "byteOffset" : 0, "componentType" : 5123, "count" : 2346, "type" : "SCALAR", "max" : [1946], "min" : [0]}, {"bufferView" : 1, "byteOffset" : 0, "componentType" : 5126, "count" : 1947, "type" : "VEC3", "max" : [115.07050323486328, 213.14810180664062, 340.585205078125], "min" : [-156.1448974609375, -0.8123000264167786, -300.0834045410156], "name" : "POSITION"}, {"bufferView" : 1, "byteOffset" : 12, "componentType" : 5126, "count" : 1947, "type" : "VEC2", "max" : [0.9900000095367432, -0.07699999958276749], "min" : [0.009999999776482582, -0.9900000095367432], "name" : "TEXCOORD_0"}, {"bufferView" : 1, "byteOffset" : 20, "componentType" : 5126, "count" : 1947, "type" : "VEC3", "max" : [0.9995618462562561, 0.9998719096183777, 0.9795013666152954], "min" : [-0.9957137703895569, -0.9998830556869507, -0.947516918182373], "name" : "NORMAL"}], "asset" : {"generator" : "Aspose.3D 22.1", "version" : "2.0"}, "buffers" : [{"uri" : "data:application/octet-stream;base64,", "byteLength" : 79772}], "bufferViews" : [{"buffer" : 0, "byteOffset" : 0, "byteLength" : 4692, "target" : 34963}, {"buffer" : 0, "byteOffset" : 4696, "byteLength" : 75072, "byteStride" : 32, "target" : 34962}], "meshes" : [{"primitives" : [{"attributes" : {"POSITION" : 1, "TEXCOORD_0" : 2, "NORMAL" : 3}, "indices" : 0, "mode" : 4}], "name" : ""}], "nodes" : [{"mesh" : 0, "name" : "Rock_9"}], "scene" : 0, "scenes" : [{"nodes" : [0]}]}