{
  "asset": {
    "version": "2.0",
    "generator": "THREE.GLTFExporter"
  },
  "scenes": [
    {
      "name": "Scene",
      "nodes": [
        1
      ]
    }
  ],
  "scene": 0,
  "nodes": [
    {
      "name": "Rock_9",
      "extras": {
        "name": "Rock_9"
      },
      "mesh": 0
    },
    {
      "matrix": [
        0.05,
        0,
        0,
        0,
        0,
        0.05,
        0,
        0,
        0,
        0,
        0.05,
        0,
        0,
        -0.4953230510917601,
        0,
        1
      ],
      "name": "Rock.gltf",
      "children": [
        0
      ]
    }
  ],
  "bufferViews": [
    {
      "buffer": 0,
      "byteOffset": 0,
      "byteLength": 23364,
      "target": 34962,
      "byteStride": 12
    },
    {
      "buffer": 0,
      "byteOffset": 23364,
      "byteLength": 15576,
      "target": 34962,
      "byteStride": 8
    },
    {
      "buffer": 0,
      "byteOffset": 38940,
      "byteLength": 23364,
      "target": 34962,
      "byteStride": 12
    },
    {
      "buffer": 0,
      "byteOffset": 62304,
      "byteLength": 4692,
      "target": 34963
    }
  ],
  "buffers": [
    {
      "byteLength": 66996,
      "uri": "data:application/octet-stream;base64,"
    }
  ],
  "accessors": [
    {
      "bufferView": 0,
      "componentType": 5126,
      "count": 1947,
      "max": [
        115.07050323486328,
        213.14810180664062,
        340.585205078125
      ],
      "min": [
        -156.1448974609375,
        -0.8123000264167786,
        -300.0834045410156
      ],
      "type": "VEC3"
    },
    {
      "bufferView": 1,
      "componentType": 5126,
      "count": 1947,
      "max": [
        0.9900000095367432,
        -0.07699999958276749
      ],
      "min": [
        0.009999999776482582,
        -0.9900000095367432
      ],
      "type": "VEC2"
    },
    {
      "bufferView": 2,
      "componentType": 5126,
      "count": 1947,
      "max": [
        0.9995618462562561,
        0.9998719096183777,
        0.9795013666152954
      ],
      "min": [
        -0.9957137703895569,
        -0.9998830556869507,
        -0.947516918182373
      ],
      "type": "VEC3"
    },
    {
      "bufferView": 3,
      "componentType": 5123,
      "count": 2346,
      "max": [
        1946
      ],
      "min": [
        0
      ],
      "type": "SCALAR"
    }
  ],
  "materials": [
    {
      "pbrMetallicRoughness": {
        "metallicFactor": 1,
        "roughnessFactor": 1
      }
    }
  ],
  "meshes": [
    {
      "primitives": [
        {
          "mode": 4,
          "attributes": {
            "POSITION": 0,
            "TEXCOORD_0": 1,
            "NORMAL": 2
          },
          "indices": 3,
          "material": 0
        }
      ]
    }
  ]
}